<svg xmlns="http://www.w3.org/2000/svg" xmlns:xlink="http://www.w3.org/1999/xlink" viewBox="0,0,256,256" width="64px" height="64px" fill-rule="nonzero"><defs><linearGradient x1="32" y1="7.001" x2="32" y2="56.998" gradientUnits="userSpaceOnUse" id="color-1"><stop offset="0" stop-color="#87a8e1"></stop><stop offset="1" stop-color="#c822ff"></stop></linearGradient><linearGradient x1="32" y1="11.94" x2="32" y2="52.06" gradientUnits="userSpaceOnUse" id="color-2"><stop offset="0" stop-color="#6dc7ff"></stop><stop offset="1" stop-color="#e6abff"></stop></linearGradient></defs><g fill="none" fill-rule="nonzero" stroke="none" stroke-width="1" stroke-linecap="butt" stroke-linejoin="miter" stroke-miterlimit="10" stroke-dasharray="" stroke-dashoffset="0" font-family="none" font-weight="none" font-size="none" text-anchor="none" style="mix-blend-mode: normal"><g transform="scale(4,4)"><path d="M49.757,56.999c-0.768,0 -1.536,-0.292 -2.121,-0.877l-15.636,-15.637l-15.636,15.636c-1.17,1.169 -3.073,1.169 -4.243,0l-4.243,-4.243c-1.17,-1.17 -1.17,-3.073 0,-4.243l15.637,-15.635l-15.636,-15.636c-1.17,-1.17 -1.17,-3.073 0,-4.243l4.243,-4.243c1.169,-1.17 3.072,-1.171 4.243,0l15.635,15.637l15.636,-15.636c1.17,-1.171 3.073,-1.17 4.243,0l4.243,4.243c1.17,1.17 1.17,3.073 0,4.243l-15.637,15.635l15.636,15.636c1.17,1.17 1.17,3.073 0,4.243l-4.243,4.243c-0.585,0.584 -1.353,0.877 -2.121,0.877zM32,37.657l17.05,17.05c0.39,0.39 1.025,0.389 1.415,0l4.243,-4.243c0.39,-0.39 0.39,-1.024 0,-1.415l-17.051,-17.049l17.05,-17.05c0.39,-0.39 0.39,-1.024 0,-1.415l-4.243,-4.243c-0.39,-0.39 -1.025,-0.391 -1.415,0l-17.049,17.051l-17.05,-17.05c-0.39,-0.39 -1.025,-0.389 -1.415,0l-4.243,4.243c-0.39,0.39 -0.39,1.024 0,1.415l17.051,17.049l-17.05,17.05c-0.39,0.39 -0.39,1.024 0,1.415l4.243,4.243c0.389,0.389 1.024,0.39 1.415,0z" fill="url(#color-1)"></path><path d="M52.061,14.061l-2.122,-2.122l-17.939,17.94l-17.939,-17.94l-2.122,2.122l17.94,17.939l-17.94,17.939l2.122,2.122l17.939,-17.94l17.939,17.94l2.122,-2.122l-17.94,-17.939z" fill="url(#color-2)"></path></g></g></svg>